<svg width="353" height="400" viewBox="0 0 353 400" fill="none" xmlns="http://www.w3.org/2000/svg">
<path d="M307.254 122.549L162.754 39.5493C160.754 37.0493 161.254 35.0493 161.254 35.0493V14.5493C161.754 12.2159 164.054 6.54914 169.254 2.54914C174.454 -1.45086 182.087 0.215809 185.254 1.54914C231.587 27.0491 327.054 80.2491 338.254 89.0491C349.454 97.8491 352.254 110.049 352.254 115.049V294.549C352.254 299.749 348.254 304.716 346.254 306.549C326.587 320.049 282.854 348.149 265.254 352.549C247.654 356.949 241.587 345.049 240.754 338.549C240.921 295.216 241.154 206.849 240.754 200.049C240.354 193.249 234.587 188.216 231.754 186.549C184.254 159.382 87.6539 104.249 81.2539 101.049C74.8539 97.8491 63.9206 99.0491 59.2539 100.049C51.5872 103.216 35.2539 110.849 31.2539 116.049C27.2539 121.249 29.9206 126.216 31.7539 128.049C76.0872 154.216 167.454 207.649 178.254 212.049C189.054 216.449 191.754 224.549 191.754 228.049C191.921 278.049 192.154 379.049 191.754 383.049C191.354 387.049 190.921 388.382 190.754 388.549C189.754 390.382 186.554 394.849 181.754 398.049C176.954 401.249 170.087 399.716 167.254 398.549C116.087 369.549 12.4539 310.649 7.25391 307.049C2.05389 303.449 0.420563 297.549 0.253906 295.049C-0.0794373 238.049 -0.3461 121.249 1.25391 110.049C2.85391 98.8491 10.9206 91.3825 14.7539 89.0491C24.0872 83.0491 47.1539 69.3491 64.7539 62.5491C82.3539 55.7491 102.087 61.7158 109.754 65.5491C156.421 92.5491 251.454 147.349 258.254 150.549C265.054 153.749 275.087 151.882 279.254 150.549C286.254 147.549 301.654 140.249 307.254 135.049C312.854 129.849 309.587 124.549 307.254 122.549Z" fill="url(#paint0_linear_202_6)"/>
<defs>
<linearGradient id="paint0_linear_202_6" x1="176.254" y1="0.0415039" x2="176.127" y2="399.959" gradientUnits="userSpaceOnUse">
<stop/>
<stop offset="1" stop-color="#0167EE"/>
</linearGradient>
</defs>
</svg>
