<svg width="353" height="400" viewBox="0 0 353 400" fill="none" xmlns="http://www.w3.org/2000/svg">
<path d="M307.252 122.508L162.752 39.5078C160.752 37.0078 161.252 35.0078 161.252 35.0078V14.5078C161.752 12.1744 164.052 6.50764 169.252 2.50764C174.452 -1.49236 182.085 0.174305 185.252 1.50764C231.585 27.0076 327.052 80.2076 338.252 89.0076C349.452 97.8076 352.252 110.008 352.252 115.008V294.508C352.252 299.708 348.252 304.674 346.252 306.508C326.585 320.008 282.852 348.108 265.252 352.508C247.652 356.908 241.585 345.008 240.752 338.508C240.919 295.174 241.152 206.808 240.752 200.008C240.352 193.208 234.585 188.174 231.752 186.508C184.252 159.341 87.6519 104.208 81.252 101.008C74.852 97.8076 63.9186 99.0076 59.252 100.008C51.5853 103.174 35.252 110.808 31.252 116.008C27.252 121.208 29.9186 126.174 31.752 128.008C76.0853 154.174 167.452 207.608 178.252 212.008C189.052 216.408 191.752 224.508 191.752 228.008C191.919 278.008 192.152 379.008 191.752 383.008C191.352 387.008 190.919 388.341 190.752 388.508C189.752 390.341 186.552 394.808 181.752 398.008C176.952 401.208 170.085 399.674 167.252 398.508C116.085 369.508 12.452 310.608 7.25195 307.008C2.05194 303.408 0.41861 297.508 0.251953 295.008C-0.0813904 238.008 -0.348053 121.208 1.25195 110.008C2.85196 98.8076 10.9186 91.341 14.752 89.0076C24.0853 83.0076 47.1519 69.3076 64.752 62.5076C82.352 55.7076 102.085 61.6743 109.752 65.5076C156.419 92.5076 251.452 147.308 258.252 150.508C265.052 153.708 275.085 151.841 279.252 150.508C286.252 147.508 301.652 140.208 307.252 135.008C312.852 129.808 309.585 124.508 307.252 122.508Z" fill="white"/>
</svg>
